<svg width="33" height="23" viewBox="0 0 33 23" fill="none" xmlns="http://www.w3.org/2000/svg">
  <path d="M28.8912 11.3793C28.8912 15.1717 25.8574 18.2461 22.115 18.2461C20.003 18.2461 18.1167 17.267 16.874 15.7323C16.8692 15.7661 16.8642 15.8 16.859 15.8338C16.6749 17.0357 16.259 18.1891 15.6351 19.2282C15.5089 19.4384 15.3747 19.643 15.2329 19.8417C17.1032 21.4055 19.5008 22.3448 22.115 22.3448C28.0912 22.3448 32.936 17.4354 32.936 11.3793C32.936 5.32322 28.0912 0.413788 22.115 0.413788C16.1387 0.413788 11.2939 5.32322 11.2939 11.3793C11.2939 14.3032 12.4232 16.9597 14.2639 18.9256C14.3506 18.7985 14.4338 18.6688 14.5132 18.5364C15.0476 17.6467 15.4037 16.659 15.5613 15.6297C15.695 14.7566 15.6836 13.8681 15.5287 13.0009C15.4957 12.8625 15.4667 12.7225 15.4421 12.581C15.4387 12.5666 15.4353 12.5522 15.4319 12.5378L15.4346 12.5371C15.3715 12.1607 15.3387 11.7739 15.3387 11.3793C15.3387 7.5869 18.3725 4.51255 22.115 4.51255C25.8574 4.51255 28.8912 7.5869 28.8912 11.3793Z" fill="#96989A"/>
  <path d="M11.5726 13.8802C11.5966 14.0545 11.6089 14.2325 11.6089 14.4135C11.6089 16.5301 9.91564 18.2461 7.82684 18.2461C5.73805 18.2461 4.04474 16.5301 4.04474 14.4135C4.04474 12.2968 5.73805 10.5808 7.82684 10.5808C8.62736 10.5808 9.36979 10.8329 9.98108 11.2629C9.99447 9.83136 10.2545 8.40707 10.7553 7.05591C9.85072 6.68583 8.86226 6.48209 7.82684 6.48209C3.5042 6.48209 0 10.0331 0 14.4135C0 18.7938 3.5042 22.3448 7.82684 22.3448C12.1495 22.3448 15.6537 18.7938 15.6537 14.4135C15.6537 11.5599 14.1666 9.05827 11.9348 7.66107C11.276 9.5134 11.1209 11.5134 11.4885 13.4502C11.5178 13.5649 11.542 13.6817 11.5608 13.8004C11.5667 13.8265 11.5726 13.8527 11.5786 13.8788L11.5726 13.8802Z" fill="#ED3237"/>
</svg>
